
    <svg class="img-fluid" id="outputsvg" xmlns="http://www.w3.org/2000/svg"
        style="cursor: move; transition: transform 200ms ease-in-out 0s;"
        width="100%" height="100%" viewBox="0 0 33700 18590">
        <g id="l4nefryzuMNlfkqhzFlqabu" fill="rgb(0,174,239)" style="transform: none;">
            <g>
                <path id="p17yVyzQA2"
                    d="M27900 15050 l0 -570 305 0 305 0 0 60 0 60 -235 0 -235 0 0 190 0 190 220 0 220 0 0 60 0 60 -220 0 -220 0 0 260 0 260 -70 0 -70 0 0 -570z">
                </path>
                <path id="paDzA4mEf"
                    d="M28510 15618 c1 -2 87 -257 193 -568 l192 -565 89 0 90 0 188 550 c103 303 191 558 194 568 5 15 -3 17 -70 17 l-75 0 -19 -52 c-11 -29 -38 -110 -61 -180 l-43 -128 -207 0 -207 0 -59 180 -59 180 -73 0 c-40 0 -73 -1 -73 -2z m575 -688 c-41 -121 -79 -245 -86 -275 -7 -30 -15 -55 -18 -55 -4 0 -12 26 -19 58 -8 31 -45 152 -83 268 -38 115 -69 213 -69 217 0 4 78 7 174 7 l174 0 -73 -220z">
                </path>
                <path id="pAFRL1kGu"
                    d="M29607 15578 c6 -66 73 -1045 73 -1073 0 -25 1 -25 93 -25 l94 0 116 333 c64 182 133 388 153 457 20 69 38 132 41 140 4 9 12 -6 20 -35 32 -114 119 -369 212 -621 l99 -269 91 -3 c50 -1 91 -1 92 0 1 2 18 258 38 571 l36 567 -67 0 -67 0 -5 -52 c-5 -48 -26 -420 -44 -803 l-7 -150 -39 120 c-21 66 -99 290 -174 498 l-137 378 -55 -3 -55 -3 -121 -360 c-67 -198 -136 -412 -153 -475 -18 -63 -36 -124 -40 -135 -5 -12 -11 43 -15 140 -7 150 -27 512 -42 743 l-7 102 -67 0 -68 0 5 -42z">
                </path>
                <path id="pXYYGP9pe" d="M31000 15050 l0 -570 70 0 70 0 0 570 0 570 -70 0 -70 0 0 -570z"></path>
                <path id="pPxiXv4j"
                    d="M31400 15050 l0 -570 70 0 70 0 0 510 0 510 245 0 245 0 0 60 0 60 -315 0 -315 0 0 -570z"></path>
                <path id="pfN9qY8Xu"
                    d="M32320 15378 l0 -243 -179 -325 -179 -325 71 -3 c38 -2 75 -1 81 1 6 3 72 126 146 275 74 149 137 271 140 270 3 0 66 -122 140 -270 74 -149 140 -272 146 -275 6 -2 43 -3 82 -1 l71 3 -190 325 -189 324 0 243 0 243 -70 0 -70 0 0 -242z">
                </path>
                <path id="p1HBf3j7SE"
                    d="M7474 14040 c-12 -4 -31 -21 -43 -36 l-21 -27 0 -2969 c0 -2629 2 -2972 15 -2998 31 -59 107 -69 156 -21 l29 29 0 1441 0 1441 2065 0 2065 0 0 -1430 c0 -1542 -2 -1472 49 -1500 39 -20 91 -12 122 19 l29 29 0 2982 c0 2026 -3 2987 -10 3001 -29 53 -116 61 -161 13 l-24 -26 -3 -1444 -2 -1444 -2065 0 -2065 0 0 1443 c0 1351 -2 1443 -18 1463 -32 40 -74 52 -118 34z">
                </path>
                <path id="pu3vc1Nll"
                    d="M12738 14033 c-14 -9 -31 -27 -37 -40 -16 -35 -15 -5946 0 -5976 30 -59 107 -76 153 -34 13 12 1000 1325 2192 2917 1982 2646 2169 2899 2172 2937 3 37 0 47 -26 73 -33 32 -72 39 -114 19 -14 -6 -481 -621 -1078 -1419 l-1055 -1409 -1027 -1 -1028 0 0 1435 c0 1090 -3 1440 -12 1460 -23 51 -90 69 -140 38z m2044 -3145 c-5 -7 -427 -571 -937 -1253 -510 -682 -933 -1247 -941 -1255 -12 -12 -14 169 -14 1253 l0 1267 951 0 c760 0 949 -3 941 -12z">
                </path>
                <path id="pXXXbAMR9"
                    d="M18024 14040 c-12 -5 -29 -19 -38 -32 -15 -20 -16 -282 -16 -3006 l0 -2984 29 -29 c32 -31 71 -38 114 -18 15 7 826 1100 2103 2837 l2079 2825 5 -2804 c3 -1561 9 -2812 14 -2822 12 -24 58 -47 96 -47 21 0 41 9 61 29 l29 29 0 2977 c0 3239 4 3016 -55 3043 -38 17 -69 15 -98 -8 -15 -12 -952 -1280 -2083 -2818 -1131 -1538 -2065 -2806 -2075 -2817 -19 -19 -19 47 -19 2777 0 2147 -3 2803 -12 2823 -21 46 -82 66 -134 45z">
                </path>
                <path id="p13u9VJwLr"
                    d="M25930 13934 c-19 -2 -80 -9 -135 -15 -55 -5 -165 -23 -245 -40 -267 -54 -465 -123 -720 -250 -290 -146 -519 -310 -750 -539 -394 -392 -665 -869 -790 -1395 -90 -377 -104 -803 -39 -1189 133 -792 599 -1505 1274 -1950 365 -242 748 -388 1195 -457 125 -20 184 -23 425 -23 238 0 301 3 420 22 244 38 495 107 708 196 186 77 448 221 467 256 20 37 12 95 -16 124 -42 42 -88 36 -190 -24 -815 -481 -1829 -505 -2664 -64 -243 129 -453 285 -656 488 -153 153 -251 273 -363 446 -221 338 -363 725 -423 1150 -20 145 -17 556 5 700 67 435 206 801 432 1140 121 181 200 277 359 435 430 427 946 681 1561 772 88 13 183 17 360 17 177 0 272 -4 360 -17 377 -56 720 -174 1027 -356 46 -27 92 -50 103 -51 73 -8 115 25 115 90 0 23 -5 50 -10 60 -23 43 -363 220 -563 294 -200 75 -424 131 -646 162 -101 14 -525 27 -601 18z">
                </path>
                <path id="pX9NV5Wlj"
                    d="M28563 13878 l-31 -33 -6 -1050 c-3 -577 -9 -1855 -12 -2840 l-6 -1790 46 -45 47 -45 1904 -4 1904 -3 31 30 c50 50 34 135 -31 162 -25 11 -369 12 -1875 6 l-1844 -7 0 1331 0 1330 1835 0 1835 0 0 85 0 85 -1840 0 -1840 0 0 1340 0 1340 2098 2 c1153 2 2098 2 2100 2 6 -3 693 -3211 693 -3239 0 -28 -675 -3242 -683 -3250 -1 -2 -5365 -13 -11918 -25 -6553 -11 -11960 -24 -12015 -28 -55 -4 5317 -18 11937 -30 12025 -24 12038 -24 12065 -4 27 19 37 63 380 1658 194 902 353 1655 353 1674 0 19 -155 775 -346 1680 l-347 1645 -35 28 -35 27 -2167 0 -2166 0 -31 -32z">
                </path>
            </g>
        </g>
        <g id="l5vz1CdVRv6bRb9ka4kyd0h" fill="rgb(255,255,255)" style="transform: none;">
            <g>
                <path id="pbY6ZCV9X"
                    d="M7430 18569 c-1373 -76 -2665 -505 -3800 -1262 -1844 -1230 -3067 -3221 -3319 -5402 -41 -347 -46 -454 -46 -900 0 -446 5 -553 46 -900 166 -1435 761 -2820 1694 -3941 948 -1139 2201 -1972 3620 -2408 716 -220 1339 -310 2130 -310 373 1 597 14 930 55 1409 174 2756 757 3844 1664 454 378 879 824 1205 1265 90 122 72 104 -73 -74 -447 -548 -1014 -1061 -1621 -1466 -308 -205 -512 -322 -850 -489 -904 -446 -1849 -693 -2880 -752 -251 -14 -766 -6 -1010 16 -763 68 -1517 242 -2166 499 -2448 968 -4206 3185 -4578 5776 -95 664 -101 1354 -16 2015 205 1590 936 3083 2069 4224 1031 1039 2343 1747 3761 2031 419 83 734 121 1189 141 597 27 1114 -49 1736 -256 1277 -425 2323 -1256 2817 -2239 l51 -101 11 -638 11 -637 57 -57 56 -56 511 -5 511 -5 -5 -216 c-3 -119 -7 -335 -10 -481 l-4 -265 57 -57 57 -56 1060 -13 1060 -12 45 23 c24 12 53 34 65 49 11 14 215 267 454 561 617 759 1197 1474 1551 1910 l305 375 3 -765 2 -765 57 -57 57 -58 428 0 428 0 0 -623 0 -623 58 -57 58 -57 591 0 c554 0 594 1 635 19 34 14 117 98 413 416 204 219 377 406 385 415 8 10 65 71 126 136 61 66 204 220 319 344 115 124 260 280 324 348 63 68 122 131 130 141 9 10 121 131 250 270 l233 251 372 -2 371 -3 8 -1105 c4 -607 11 -1108 15 -1111 4 -4 43 -18 87 -32 l81 -24 76 96 c280 351 686 685 1093 897 952 497 2000 462 3118 -103 l147 -74 805 12 c442 7 803 15 800 17 -2 2 -361 10 -798 18 l-794 14 -64 36 c-98 56 -342 176 -459 227 -336 146 -696 246 -1055 293 -178 24 -581 24 -756 1 -726 -96 -1394 -431 -1952 -976 l-138 -135 7 1028 7 1027 -59 60 -58 59 -452 0 c-422 0 -455 -1 -494 -19 -31 -14 -88 -68 -208 -197 -91 -99 -195 -211 -231 -249 -36 -39 -116 -125 -177 -190 -285 -309 -538 -581 -643 -693 -63 -68 -122 -131 -130 -141 -9 -10 -66 -72 -127 -137 -61 -66 -204 -220 -319 -344 -114 -124 -239 -258 -278 -297 l-70 -73 -513 0 -514 0 0 628 0 628 -58 57 -58 57 -427 0 -427 0 -2 866 -3 866 -78 29 c-43 15 -87 31 -97 34 -14 5 -62 -48 -232 -257 -211 -260 -556 -684 -1533 -1888 -275 -338 -557 -687 -629 -774 l-129 -159 -406 6 c-223 4 -662 10 -975 14 l-569 6 7 481 7 481 -56 56 -55 56 -507 6 c-278 4 -509 10 -512 13 -3 3 -11 277 -16 608 l-10 603 -53 107 c-304 627 -823 1205 -1497 1668 -802 552 -1829 923 -2737 987 -165 12 -450 12 -668 0z">
                </path>
                <path id="ppv67lf6C"
                    d="M4830 13929 c-673 -62 -1317 -366 -1800 -849 -901 -900 -1118 -2271 -540 -3410 365 -719 1032 -1268 1810 -1490 115 -33 301 -71 450 -92 145 -20 593 -17 745 5 408 60 786 192 1114 389 97 59 120 94 101 154 -27 81 -95 85 -214 14 -105 -63 -325 -168 -437 -209 -531 -193 -1090 -222 -1629 -86 -612 155 -1173 539 -1545 1056 -587 816 -677 1893 -235 2794 399 812 1159 1367 2061 1506 192 30 570 33 754 6 381 -56 732 -178 1033 -359 117 -70 185 -65 212 16 20 61 -4 96 -105 156 -384 226 -798 359 -1250 400 -129 12 -390 11 -525 -1z">
                </path>
            </g>
        </g>
    </svg>
